<?xml version="1.0" encoding="UTF-8"?>
<svg width="1080px" height="1080px" viewBox="0 0 1080 1080" version="1.1" xmlns="http://www.w3.org/2000/svg" xmlns:xlink="http://www.w3.org/1999/xlink">
    <!-- Generator: Sketch 53.2 (72643) - https://sketchapp.com -->
    <title>Artboard</title>
    <desc>Created with Sketch.</desc>
    <g id="Artboard" stroke="none" stroke-width="1" fill="none" fill-rule="evenodd">
        <g id="Group" transform="translate(15.000000, 180.000000)">
            <ellipse id="Oval" fill="#E45454" cx="361" cy="360.5" rx="361" ry="360.5"></ellipse>
            <rect id="Rectangle" fill="#E45454" x="484" y="30" width="295" height="56"></rect>
            <ellipse id="Oval" fill="#E45454" cx="958" cy="144" rx="24" ry="28"></ellipse>
            <ellipse id="Oval" fill="#E45454" cx="779" cy="58" rx="24" ry="28"></ellipse>
            <rect id="Rectangle" fill="#E45454" x="531" y="573" width="295" height="56"></rect>
            <rect id="Rectangle" fill="#E45454" x="498" y="116" width="305" height="56"></rect>
            <ellipse id="Oval" fill="#E45454" cx="802" cy="144" rx="24" ry="28"></ellipse>
            <ellipse id="Oval" fill="#E45454" cx="858" cy="144" rx="24" ry="28"></ellipse>
            <ellipse id="Oval" fill="#E45454" cx="1020.5" cy="144" rx="29.5" ry="28"></ellipse>
            <rect id="Rectangle" fill="#E45454" x="589" y="219" width="378" height="56"></rect>
            <rect id="Rectangle" fill="#E45454" x="589" y="326" width="378" height="56"></rect>
            <rect id="Rectangle" fill="#E45454" x="574" y="466" width="295" height="56"></rect>
            <ellipse id="Oval" fill="#E45454" cx="967" cy="247" rx="24" ry="28"></ellipse>
            <ellipse id="Oval" fill="#E45454" cx="869" cy="494" rx="24" ry="28"></ellipse>
            <ellipse id="Oval" fill="#E45454" cx="827" cy="601" rx="24" ry="28"></ellipse>
            <ellipse id="Oval" fill="#E45454" cx="967" cy="354" rx="24" ry="28"></ellipse>
            <ellipse id="Oval" fill="#FFFFFF" cx="361" cy="355" rx="286" ry="272"></ellipse>
            <circle id="Oval" fill="#E45454" cx="361.5" cy="348.5" r="204.5"></circle>
            <circle id="Oval" fill="#FFFFFF" cx="362" cy="354" r="127"></circle>
            <circle id="Oval" fill="#E45454" cx="362" cy="355" r="73"></circle>
            <ellipse id="Oval" fill="#E45454" cx="923" cy="494" rx="24" ry="28"></ellipse>
            <ellipse id="Oval" fill="#E45454" cx="967" cy="494" rx="24" ry="28"></ellipse>
            <ellipse id="Oval" fill="#E45454" cx="843.5" cy="56" rx="29.5" ry="28"></ellipse>
            <rect id="Rectangle" fill="#E45454" x="922" y="466" width="44" height="56"></rect>
            <rect id="Rectangle" fill="#E45454" x="852" y="116" width="105" height="56"></rect>
        </g>
    </g>
</svg>